# xmcd
#
# Track frame offsets: 
#        150
#        3622
#        25105
#        44605
#        63462
#        80055
#        102390
#        125240
#        140270
#        146657
#        161870
#        176880
#        192170
#        209997
#        235512
#
# Disc length: 3560 seconds
#
# Revision: 11
# Processed by: cddbd v1.5.2PL0 Copyright (c) Steve Scherf et al.
# Submitted via: ExactAudioCopy v1.0b3
#
DISCID=e70de60f
DTITLE=Musiq Soulchild - Aijuswanaseing
DYEAR=2000
DGENRE=R&B
TTITLE0=Scratch Introlude
TTITLE1=Musiq Soulchild, Ayana Of Aaries - Girl Next Door
TTITLE2=You and Me
TTITLE3=Just Friends (Sunny)
TTITLE4=Mary Go Round
TTITLE5=143
TTITLE6=Love
TTITLE7=My Girl
TTITLE8=Musiq Soulchild (Interlude)
TTITLE9=Seventeen
TTITLE10=L' Is Gone
TTITLE11=Speechless
TTITLE12=Poparatzi
TTITLE13=Musiq Soulchild, Aaries - Settle For My Love (Intermission)
TTITLE14=You Be Alright
EXTD=www.RapMusicGuide.com\n
EXTT0=
EXTT1=
EXTT2=
EXTT3=
EXTT4=
EXTT5=
EXTT6=
EXTT7=
EXTT8=
EXTT9=
EXTT10=
EXTT11=
EXTT12=
EXTT13=
EXTT14=
PLAYORDER=
